<svg width="48" height="48" viewBox="0 0 48 48" fill="none" xmlns="http://www.w3.org/2000/svg">
<path d="M47 20.1667V4.83333C47 2.725 45.2643 1 43.1428 1H23.8571C21.7357 1 20 2.725 20 4.83333V12.5H4.85714C2.73571 12.5 1 14.225 1 16.3333V43.1667C1 45.275 2.73571 47 4.85714 47H29.6428C30.7228 47 31.5714 46.1567 31.5714 45.0833V35.5H35.4286V45.0833C35.4286 46.1567 36.2771 47 37.3571 47H47V46C47 46 47 45.6083 47 43.5V29.5C47 27.3917 47 23.1667 47 23.1667V20.1667ZM16.1428 39.3333H9V35.5H16.1428V39.3333ZM16.1428 31.6667H9V27.8333H16.1428V31.6667ZM16.1428 24H9V20.1667H16.1428V24ZM31.5714 27.8333H27.7143V24H31.5714V27.8333ZM31.5714 20.1667H27.7143V16.3333H31.5714V20.1667ZM31.5714 12.5H27.7143V8.66667H31.5714V12.5ZM39.2857 27.8333H35.4286V24H39.2857V27.8333ZM39.2857 20.1667H35.4286V16.3333H39.2857V20.1667ZM39.2857 12.5H35.4286V8.66667H39.2857V12.5ZM43.1428 42.3333L47 39.3333V35.5L43.1428 38.5V42.3333ZM43.1428 34.6667L47 31.6667V27.8333L43.1428 30.8333V34.6667Z" fill="#007AFF"/>
</svg>
