<svg width="48" height="48" viewBox="0 0 48 48" fill="none" xmlns="http://www.w3.org/2000/svg">
<path d="M3.55556 26.5556H18.8889C20.2944 26.5556 21.4444 25.4056 21.4444 24V3.55556C21.4444 2.15 20.2944 1 18.8889 1H3.55556C2.15 1 1 2.15 1 3.55556V24C1 25.4056 2.15 26.5556 3.55556 26.5556ZM3.55556 47H18.8889C20.2944 47 21.4444 45.85 21.4444 44.4444V34.2222C21.4444 32.8167 20.2944 31.6667 18.8889 31.6667H3.55556C2.15 31.6667 1 32.8167 1 34.2222V44.4444C1 45.85 2.15 47 3.55556 47ZM29.1111 47H44.4444C45.85 47 47 45.85 47 44.4444V24C47 22.5944 45.85 21.4444 44.4444 21.4444H29.1111C27.7056 21.4444 26.5556 22.5944 26.5556 24V44.4444C26.5556 45.85 27.7056 47 29.1111 47ZM26.5556 3.55556V13.7778C26.5556 15.1833 27.7056 16.3333 29.1111 16.3333H44.4444C45.85 16.3333 47 15.1833 47 13.7778V3.55556C47 2.15 45.85 1 44.4444 1H29.1111C27.7056 1 26.5556 2.15 26.5556 3.55556Z" fill="#007AFF"/>
</svg>
