<svg width="48" height="48" viewBox="0 0 48 48" fill="none" xmlns="http://www.w3.org/2000/svg">
<path d="M3.5 47H43.5C44.875 47 46 45.8429 46 44.4286V34.1429C46 32.7286 44.875 31.5714 43.5 31.5714H3.5C2.125 31.5714 1 32.7286 1 34.1429V44.4286C1 45.8429 2.125 47 3.5 47ZM3.5 26.4286H43.5C44.875 26.4286 46 25.2714 46 23.8571C46 22.4429 44.875 21.2857 43.5 21.2857H3.5C2.125 21.2857 1 22.4429 1 23.8571C1 25.2714 2.125 26.4286 3.5 26.4286ZM1 13.5714C1 14.9857 2.125 16.1429 3.5 16.1429H43.5C44.875 16.1429 46 14.9857 46 13.5714C46 12.1571 44.875 11 43.5 11H3.5C2.125 11 1 12.1571 1 13.5714Z" fill="#007AFF"/>
<path d="M3.5 6.14286C2.125 6.14286 1 4.98571 1 3.57143C1 2.15714 2.125 1 3.5 1H43.5C44.875 1 46 2.15714 46 3.57143C46 4.98571 44.875 6.14286 43.5 6.14286H3.5Z" fill="#007AFF"/>
</svg>
