<svg width="804" height="884" viewBox="0 0 804 884" fill="none" xmlns="http://www.w3.org/2000/svg">
<g filter="url(#filter0_f_303_31)">
<path d="M431 252.209C536.533 44.2201 824.306 83.5732 824.306 83.5732L963.572 453.094C963.572 453.094 373.968 1059.07 247.324 723.037C120.681 387.008 325.467 460.197 431 252.209Z" fill="url(#paint0_linear_303_31)" fill-opacity="0.75"/>
</g>
<g filter="url(#filter1_f_303_31)">
<path d="M501.937 314.529C597.304 2.69075 849.672 150.878 849.672 150.878L964.922 456.676C964.922 456.676 278.963 815.899 237.281 705.302C195.599 594.705 406.569 626.367 501.937 314.529Z" fill="url(#paint1_linear_303_31)"/>
</g>
<g filter="url(#filter2_f_303_31)">
<path d="M505.762 315.699C529.436 238.288 562.722 189.846 599.018 160.513C635.286 131.201 674.878 120.711 711.67 119.763C748.52 118.813 782.533 127.443 807.399 136.361C819.817 140.815 829.914 145.327 836.894 148.717C840.383 150.412 843.09 151.826 844.916 152.811C845.522 153.138 846.031 153.417 846.44 153.644L959.928 454.768C958.735 455.388 957.21 456.179 955.371 457.131C950.343 459.731 942.961 463.533 933.549 468.332C914.725 477.931 887.785 491.523 855.325 507.488C790.399 539.42 703.417 580.835 615.152 618.789C526.845 656.761 437.422 691.195 367.559 709.24C332.585 718.273 302.814 723.117 280.648 722.375C258.201 721.623 245.311 715.267 241.024 703.892C236.001 690.563 234.909 679.722 236.703 670.296C238.497 660.871 243.254 652.45 250.637 644.085C258.058 635.677 267.997 627.474 279.961 618.477C285.451 614.348 291.321 610.086 297.532 605.575L299.164 604.39C305.971 599.446 313.161 594.209 320.625 588.573C380.553 543.326 457.767 472.633 505.762 315.699Z" stroke="#60F6FF" stroke-width="8"/>
</g>
<g filter="url(#filter3_f_303_31)">
<path d="M503.849 315.114C527.607 237.429 561.078 188.604 597.761 158.957C634.43 129.322 674.469 118.721 711.619 117.763C748.797 116.805 783.066 125.51 808.074 134.479C820.57 138.961 830.734 143.502 837.768 146.919C841.284 148.627 844.016 150.053 845.865 151.05C846.789 151.549 847.493 151.94 847.963 152.205C847.994 152.222 848.024 152.239 848.054 152.256L962.426 455.723C962.301 455.788 962.169 455.857 962.03 455.929C960.732 456.605 958.805 457.606 956.29 458.907C951.258 461.51 943.873 465.313 934.457 470.114C915.627 479.717 888.677 493.313 856.207 509.282C791.264 541.223 704.25 582.654 615.942 620.626C527.614 658.607 438.076 693.092 368.06 711.176C333.03 720.224 303.037 725.126 280.581 724.374C257.985 723.617 243.901 717.197 239.153 704.597C234.036 691.02 232.859 679.799 234.739 669.922C236.619 660.046 241.594 651.308 249.137 642.761C256.699 634.193 266.775 625.89 278.759 616.878C284.263 612.739 290.146 608.467 296.354 603.959L297.988 602.772C304.795 597.828 311.972 592.6 319.42 586.977C379.111 541.909 456.01 471.541 503.849 315.114Z" stroke="#60F6FF" stroke-opacity="0.5" stroke-width="4"/>
</g>
<g filter="url(#filter4_f_303_31)">
<path d="M496.414 425.654C646.333 69.7375 848.723 175.1 848.723 175.1L999.583 575.383C999.583 575.383 250.29 990.383 190.762 840.263C131.234 690.143 346.494 781.57 496.414 425.654Z" fill="url(#paint2_linear_303_31)"/>
</g>
<g filter="url(#filter5_f_303_31)">
<path d="M494.224 536.527C615.415 148.754 902.028 316.536 902.028 316.536L1034.46 667.935L286.779 949.726C286.17 949.981 285.86 950.072 285.86 950.072L286.779 949.726C296.379 945.711 380.262 901.174 494.224 536.527Z" fill="#E64AFF"/>
</g>
<g filter="url(#filter6_f_303_31)">
<path d="M495.539 623.321C618.63 213.414 963.978 514.335 963.978 514.335L1059.16 766.89L282.833 1059.48C282.201 1059.74 281.879 1059.84 281.879 1059.84L282.833 1059.48C292.797 1055.3 379.789 1008.78 495.539 623.321Z" fill="url(#paint3_linear_303_31)"/>
</g>
<g filter="url(#filter7_f_303_31)">
<path d="M967.721 512.924L967.366 511.981L966.606 511.319L963.978 514.335C966.606 511.319 966.603 511.317 966.599 511.314L966.585 511.301L966.533 511.256C966.487 511.217 966.421 511.159 966.335 511.085C966.161 510.936 965.905 510.717 965.57 510.432C964.898 509.863 963.905 509.031 962.61 507.965C960.018 505.835 956.213 502.775 951.333 499.031C941.574 491.546 927.506 481.323 910.24 470.345C875.749 448.417 828.305 423.359 776.836 411.22C725.334 399.073 669.478 399.797 618.623 429.921C567.786 460.035 522.656 519.109 491.708 622.17C433.889 814.714 383.327 922.344 346.118 982.269C309.091 1041.9 285.464 1054.01 281.35 1055.76L280.468 1056.09L283.006 1063.67L281.879 1059.84C283.006 1063.67 283.006 1063.67 283.007 1063.67L283.008 1063.67L283.01 1063.67L283.013 1063.67L283.021 1063.67L283.037 1063.66L283.075 1063.65C283.103 1063.64 283.136 1063.63 283.174 1063.62C283.25 1063.6 283.345 1063.56 283.46 1063.52C283.675 1063.45 283.958 1063.34 284.308 1063.19L284.312 1063.19L1060.57 770.633L1064.32 769.222L1062.91 765.479L967.721 512.924Z" stroke="#FF5479" stroke-width="8"/>
</g>
<defs>
<filter id="filter0_f_303_31" x="127.268" y="0.607239" width="916.304" height="903.928" filterUnits="userSpaceOnUse" color-interpolation-filters="sRGB">
<feFlood flood-opacity="0" result="BackgroundImageFix"/>
<feBlend mode="normal" in="SourceGraphic" in2="BackgroundImageFix" result="shape"/>
<feGaussianBlur stdDeviation="40" result="effect1_foregroundBlur_303_31"/>
</filter>
<filter id="filter1_f_303_31" x="229.896" y="113.691" width="737.027" height="614.758" filterUnits="userSpaceOnUse" color-interpolation-filters="sRGB">
<feFlood flood-opacity="0" result="BackgroundImageFix"/>
<feBlend mode="normal" in="SourceGraphic" in2="BackgroundImageFix" result="shape"/>
<feGaussianBlur stdDeviation="1" result="effect1_foregroundBlur_303_31"/>
</filter>
<filter id="filter2_f_303_31" x="203.896" y="87.691" width="789.027" height="666.758" filterUnits="userSpaceOnUse" color-interpolation-filters="sRGB">
<feFlood flood-opacity="0" result="BackgroundImageFix"/>
<feBlend mode="normal" in="SourceGraphic" in2="BackgroundImageFix" result="shape"/>
<feGaussianBlur stdDeviation="14" result="effect1_foregroundBlur_303_31"/>
</filter>
<filter id="filter3_f_303_31" x="205.896" y="89.691" width="785.027" height="662.758" filterUnits="userSpaceOnUse" color-interpolation-filters="sRGB">
<feFlood flood-opacity="0" result="BackgroundImageFix"/>
<feBlend mode="normal" in="SourceGraphic" in2="BackgroundImageFix" result="shape"/>
<feGaussianBlur stdDeviation="13" result="effect1_foregroundBlur_303_31"/>
</filter>
<filter id="filter4_f_303_31" x="90.608" y="70.5286" width="998.975" height="892.463" filterUnits="userSpaceOnUse" color-interpolation-filters="sRGB">
<feFlood flood-opacity="0" result="BackgroundImageFix"/>
<feBlend mode="normal" in="SourceGraphic" in2="BackgroundImageFix" result="shape"/>
<feGaussianBlur stdDeviation="45" result="effect1_foregroundBlur_303_31"/>
</filter>
<filter id="filter5_f_303_31" x="195.86" y="190.427" width="928.604" height="849.645" filterUnits="userSpaceOnUse" color-interpolation-filters="sRGB">
<feFlood flood-opacity="0" result="BackgroundImageFix"/>
<feBlend mode="normal" in="SourceGraphic" in2="BackgroundImageFix" result="shape"/>
<feGaussianBlur stdDeviation="45" result="effect1_foregroundBlur_303_31"/>
</filter>
<filter id="filter6_f_303_31" x="222.879" y="348.854" width="895.284" height="769.982" filterUnits="userSpaceOnUse" color-interpolation-filters="sRGB">
<feFlood flood-opacity="0" result="BackgroundImageFix"/>
<feBlend mode="normal" in="SourceGraphic" in2="BackgroundImageFix" result="shape"/>
<feGaussianBlur stdDeviation="29.5" result="effect1_foregroundBlur_303_31"/>
</filter>
<filter id="filter7_f_303_31" x="247.057" y="367.856" width="854.412" height="731.656" filterUnits="userSpaceOnUse" color-interpolation-filters="sRGB">
<feFlood flood-opacity="0" result="BackgroundImageFix"/>
<feBlend mode="normal" in="SourceGraphic" in2="BackgroundImageFix" result="shape"/>
<feGaussianBlur stdDeviation="16" result="effect1_foregroundBlur_303_31"/>
</filter>
<linearGradient id="paint0_linear_303_31" x1="659.062" y1="94.1346" x2="171.594" y2="340.729" gradientUnits="userSpaceOnUse">
<stop stop-color="#B8FBFF"/>
<stop offset="0.381711" stop-color="#B5F3FE" stop-opacity="0.36"/>
<stop offset="1" stop-color="#B8FBFF" stop-opacity="0.79"/>
</linearGradient>
<linearGradient id="paint1_linear_303_31" x1="617.128" y1="127.709" x2="288.135" y2="534.031" gradientUnits="userSpaceOnUse">
<stop stop-color="#B8FBFF"/>
<stop offset="0.378845" stop-color="#B5F3FE" stop-opacity="0.49"/>
<stop offset="1" stop-color="#ADE1FD"/>
</linearGradient>
<linearGradient id="paint2_linear_303_31" x1="571.158" y1="219.231" x2="587.221" y2="733.772" gradientUnits="userSpaceOnUse">
<stop stop-color="#5FEBF4"/>
<stop offset="1" stop-color="#DA4F83"/>
</linearGradient>
<linearGradient id="paint3_linear_303_31" x1="759.746" y1="494.689" x2="624.675" y2="92.3443" gradientUnits="userSpaceOnUse">
<stop stop-color="#8E2E90"/>
<stop offset="1" stop-color="#902E5B" stop-opacity="0.81"/>
</linearGradient>
</defs>
</svg>
